<svg width="204" height="73" viewBox="0 0 204 73" fill="none" xmlns="http://www.w3.org/2000/svg">
<path d="M31.5898 59.0047C31.5154 58.4307 31.3276 57.8673 31.0264 57.3536C31.6996 56.5776 32.1 55.5784 32.1 54.48V51.7801C32.1 50.8412 31.7988 49.9696 31.2992 49.2574V46.3591C31.2992 45.3599 30.9626 44.4351 30.3886 43.6981C30.5126 42.9115 30.4276 42.1001 30.1264 41.349C29.6269 40.1124 28.5887 39.1735 27.3025 38.8014L24.305 37.9263C22.6291 37.4373 20.8929 37.99 19.8051 39.2266C18.604 37.9156 16.6942 37.4409 14.9935 38.1034L12.4955 39.0778C12.3467 39.1416 12.2085 39.2018 12.0597 39.2762C10.972 38.2026 9.3492 37.7279 7.78665 38.1778L5.06194 38.9538C3.91395 39.2798 2.93603 40.0664 2.38683 41.1293C1.83764 42.1923 1.73843 43.4288 2.11046 44.552C1.12191 45.3528 0.487684 46.5752 0.487684 47.9499V50.6003C0.487684 51.8262 0.987274 52.9246 1.79866 53.7253C1.73489 53.8883 1.67465 54.0371 1.61087 54.186C1.06168 55.5359 1.21049 57.0737 2.02188 58.2854C2.09629 58.3846 2.16007 58.4838 2.23448 58.5866C1.75969 59.0614 1.34868 59.522 0.997903 59.9472C-0.252842 61.4601 -0.337879 63.6321 0.799484 65.2442L2.79784 68.093C3.6234 69.2658 4.95919 69.9531 6.37292 69.9531C6.54653 69.9531 6.72369 69.9531 6.91148 69.9142C8.08782 69.776 9.12243 69.163 9.82398 68.263C12.1979 69.3118 14.7738 69.5386 17.9698 69.5386C21.1657 69.5386 25.5557 69.3508 27.6037 69.2374C29.804 69.0992 31.565 67.4268 31.7032 65.2265C31.7421 64.9395 32.0043 64.0785 32.2276 63.5754C32.8653 62.1262 32.6634 60.4397 31.7032 59.1783C31.6642 59.1287 31.6288 59.0791 31.5898 59.0295V59.0047Z" fill="#231815"/>
<path d="M12.7083 54.2426C12.1839 56.4181 11.4328 58.5405 10.5328 60.266C10.8588 60.4893 11.2344 60.7656 11.7091 61.042C13.4099 62.066 15.7342 62.2183 18.6573 62.2183C21.5805 62.2183 26.0059 61.9668 28.7802 61.5699C28.4294 62.3707 27.9546 63.8198 27.905 64.6206C25.8323 64.7446 21.4564 64.9218 18.5333 64.9218C15.2098 64.9218 13.1335 64.6454 11.3371 63.5966C10.2883 63.0226 9.41315 62.1971 8.91356 62.1971C8.33957 62.1971 7.4892 63.8978 6.94001 65.3222L4.94165 62.4734C5.99043 61.1979 7.11717 60.2483 8.04194 59.8231C8.64074 58.622 9.16513 57.0736 9.56551 55.5997H6.2172C6.79119 54.2001 7.44314 52.2265 8.06674 50.3522H5.41644V47.7019H11.5639C11.0395 49.4026 10.3875 51.3514 9.78873 53.0486H11.2131L11.6383 52.9245L12.563 53.3249V51.5498H18.5121V48.8251H13.1902V46.1252H16.3401C15.8901 45.1508 15.1921 43.9001 14.6394 42.9009L17.1373 41.9265C17.8389 43.0249 18.7884 44.6016 19.2349 45.5264L17.8601 46.1252H21.584C22.3848 44.8248 23.1572 43.1524 23.632 41.8769L26.6295 42.7521C25.9811 43.9001 25.2547 45.0764 24.5815 46.1252H27.4799V48.8251H21.5805V51.5498H28.2771V54.2497H22.1545C24.1528 56 26.5267 58.0232 27.8023 59.3483L25.7295 61.4211C24.6063 60.096 22.4556 58.0976 20.4821 56.2977C19.5077 58.1968 17.6333 60.0464 14.409 61.4955C13.9839 60.8719 13.0343 59.8196 12.3363 59.2456C16.0602 57.8956 17.5341 56.0213 18.1329 54.2462H12.7083V54.2426ZM8.18367 47.096C7.85769 45.9728 7.25889 44.2225 6.80891 42.8973L9.53362 42.1214C9.98361 43.4217 10.6072 45.0693 10.9828 46.1216L8.18367 47.096Z" fill="#FCF2E5"/>
<path d="M203.857 46.7244C203.857 44.3115 201.894 42.3521 199.484 42.3521H199.034V41.6009C199.034 39.188 197.072 37.2286 194.662 37.2286H191.764C190.726 37.2286 189.79 37.6042 189.039 38.2172C188.589 38.0684 188.114 37.9656 187.615 37.9656H177.045C174.746 37.9656 172.872 39.7514 172.709 42.0013C172.57 41.8135 172.446 41.6257 172.308 41.4379C170.859 39.638 168.173 37.5015 163.535 37.5015C158.897 37.5015 156.364 39.5388 154.886 41.3139C153.412 39.5388 150.751 37.5015 146.227 37.5015C141.702 37.5015 138.892 39.6628 137.443 41.4627C137.082 41.9234 136.756 42.4265 136.455 42.9509V42.1395C136.455 39.7266 134.492 37.7672 132.082 37.7672H131.618C131.119 37.7672 130.619 37.8558 130.144 38.0294L121.258 41.2147C119.522 41.8383 118.36 43.4894 118.36 45.3248V48.7865C118.36 50.1719 119.022 51.4864 120.135 52.312C121.099 53.0135 122.282 53.3005 123.433 53.1127V63.6325C123.433 66.0454 125.396 68.0048 127.806 68.0048H132.068C134.481 68.0048 136.441 66.0418 136.441 63.6325V62.8069C136.752 63.3561 137.078 63.8699 137.464 64.3446C138.914 66.1446 141.599 68.2918 146.237 68.2918C150.875 68.2918 153.409 66.2686 154.883 64.4687C156.357 66.2438 159.018 68.2918 163.542 68.2918C167.603 68.2918 170.165 66.6548 171.713 65.0178C172.025 66.219 172.801 67.243 173.913 67.817L175.837 68.8161C176.475 69.1421 177.162 69.3051 177.85 69.3051C178.799 69.3051 179.738 68.9791 180.511 68.3945C180.585 68.3945 180.659 68.3945 180.737 68.3803L182.661 68.1571C182.775 68.1429 182.888 68.1075 182.998 68.0827C183.111 68.0827 183.225 68.1075 183.335 68.1075C183.622 68.1075 183.923 68.0827 184.21 68.0189L185.234 67.8063C186.034 68.7063 187.182 69.2803 188.483 69.2803H191.183C192.072 69.2803 192.883 69.0181 193.571 68.5681C194.219 68.9543 194.985 69.1811 195.807 69.1811H198.655C201.068 69.1811 203.028 67.2182 203.028 64.8088V53.336C203.028 52.9498 202.978 52.5848 202.889 52.2234C203.488 51.4722 203.853 50.5227 203.853 49.4881V46.7279L203.857 46.7244Z" fill="white"/>
<path d="M176.489 63.6786C177.389 62.6298 177.963 60.9043 178.19 59.2567L180.188 59.8555C179.887 61.6306 179.462 63.5298 178.413 64.6778L176.489 63.6786ZM177.038 56.1812C178.289 56.1564 179.813 56.1068 181.489 56.0572V54.856H177.641V52.6061H181.489V51.5077H177.591V42.0864H188.161V51.5077H184.111V52.6061H188.111V54.856H184.111V55.9544C185.56 55.9048 187.059 55.8304 188.508 55.7808L188.458 58.0803C184.408 58.3319 180.135 58.5551 177.113 58.6791L177.038 56.1812ZM179.813 49.5094H181.91V44.0848H179.813V45.1335L180.989 44.7828C181.389 45.9308 181.715 47.4083 181.79 48.3826L180.465 48.783C180.415 47.8334 180.164 46.4339 179.813 45.3107V49.5094ZM182.187 59.1823C182.488 60.5818 182.686 62.357 182.711 63.5546L180.787 63.7778C180.837 62.605 180.638 60.8051 180.362 59.4055L182.187 59.1823ZM184.635 58.959C185.11 60.2842 185.56 61.9566 185.709 63.1081L183.884 63.4837C183.76 62.3605 183.335 60.635 182.86 59.3098L184.635 58.959ZM185.861 44.0883H183.71V48.2126C184.061 47.2134 184.486 45.7642 184.66 44.765L185.861 45.1902V44.0918V44.0883ZM185.861 49.5129V45.9626C185.461 47.0114 185.06 48.0886 184.734 48.8114L183.71 48.4358V49.5094H185.861V49.5129ZM187.062 58.4347C187.863 59.6075 188.66 61.209 188.986 62.3074L187.112 63.0833C186.811 61.9849 186.063 60.3338 185.287 59.0831L187.062 58.4347ZM195.208 49.2365V53.0844H199.208V64.5573H196.359V63.6821H191.736V64.6565H189.036V53.0844H192.31V41.3636H195.208V46.487H200.03V49.2365H195.208ZM196.359 55.7844H191.736V61.007H196.359V55.7844Z" fill="#07B53B"/>
<path d="M132.632 63.3667H128.369V46.9582L123.285 48.5314V45.0697L132.171 41.8844H132.632V63.3632V63.3667Z" fill="#07B53B"/>
<path d="M154.022 54.4946C154.022 57.4567 153.409 59.7315 152.187 61.3046C150.961 62.8778 149.164 63.6679 146.801 63.6679C144.438 63.6679 142.677 62.892 141.44 61.3578C140.204 59.82 139.566 57.6091 139.541 54.7356V50.7885C139.541 47.7909 140.165 45.5162 141.401 43.9643C142.638 42.4159 144.438 41.64 146.776 41.64C149.115 41.64 150.9 42.4159 152.137 43.9501C153.374 45.4879 154.011 47.6988 154.036 50.5723V54.5194L154.022 54.4946ZM149.76 50.1578C149.76 48.3826 149.508 47.0823 149.033 46.2709C148.558 45.4595 147.782 45.0591 146.758 45.0591C145.735 45.0591 145.022 45.4453 144.548 46.2213C144.073 46.9972 143.821 48.1949 143.786 49.846V55.0686C143.786 56.819 144.023 58.1193 144.498 58.9661C144.973 59.8165 145.734 60.2417 146.783 60.2417C147.832 60.2417 148.569 59.8307 149.033 59.0157C149.497 58.2043 149.735 56.9536 149.76 55.267V50.1578Z" fill="#07B53B"/>
<path d="M171.341 54.4946C171.341 57.4567 170.728 59.7315 169.506 61.3046C168.28 62.8778 166.483 63.6679 164.12 63.6679C161.757 63.6679 159.996 62.892 158.759 61.3578C157.522 59.82 156.885 57.6091 156.86 54.7356V50.7885C156.86 47.7909 157.483 45.5162 158.72 43.9643C159.957 42.4159 161.757 41.64 164.095 41.64C166.434 41.64 168.219 42.4159 169.456 43.9501C170.692 45.4879 171.33 47.6988 171.355 50.5723V54.5194L171.344 54.4946H171.341ZM167.078 50.1578C167.078 48.3826 166.827 47.0823 166.352 46.2709C165.877 45.4595 165.101 45.0591 164.077 45.0591C163.053 45.0591 162.341 45.4453 161.866 46.2213C161.392 46.9972 161.14 48.1949 161.105 49.846V55.0686C161.105 56.819 161.342 58.1193 161.817 58.9661C162.292 59.8165 163.053 60.2417 164.102 60.2417C165.151 60.2417 165.888 59.8307 166.352 59.0157C166.816 58.2043 167.054 56.9536 167.078 55.267V50.1578Z" fill="#07B53B"/>
<path d="M18.8064 28.0407C17.8568 26.9423 16.9568 26.053 16.1064 25.3904C18.654 24.9794 20.8189 24.3771 22.6046 23.6153H19.2563V12.4684H36.7739V23.6153H33.2767C35.8633 24.5153 38.0636 25.3656 39.8741 26.1628L35.8739 27.938C34.0385 26.8998 31.739 25.9148 28.9753 24.9652L31.126 23.6153H24.727L26.9521 24.6145C25.953 25.277 24.6668 25.9396 23.0794 26.588C21.6799 27.1514 20.2555 27.6368 18.8064 28.0372V28.0407ZM17.956 11.6712V5.14819H38.099V11.6712H17.956ZM21.3043 9.0209H23.6782V7.79496H21.3043V9.0209ZM22.9023 15.5439H32.9472V14.6935H22.9023V15.5439ZM22.9023 18.467H32.9472V17.6167H22.9023V18.467ZM22.9023 21.415H32.9472V20.5398H22.9023V21.415ZM26.6758 9.01735H29.0745V7.79141H26.6758V9.01735ZM32.0756 9.01735H34.5735V7.79141H32.0756V9.01735Z" fill="#FCF2E5"/>
<path d="M68.5385 27.9132C68.2373 27.5625 67.8263 27.1621 67.3019 26.7263C66.7775 26.2905 66.3133 25.9503 65.9165 25.7377C67.1035 24.0264 67.7767 21.7516 67.9645 18.9135H66.0405V15.6396H68.0389V12.4153H66.4409V9.24064H68.3896C68.1912 7.90486 67.7767 6.57971 67.1389 5.24039L69.9132 4.36522C70.6254 5.7258 71.1002 7.08993 71.3376 8.43989L68.9884 9.24064H75.0615L72.7619 8.61705C73.3111 7.25646 73.7363 5.79312 74.0375 4.24475L77.4602 4.99591C76.6594 6.85608 75.9969 8.28398 75.4866 9.24419H77.5842V12.4189H75.8339V15.6432H77.857V18.9171H75.8339V27.8884H72.6344V18.9171H71.1356C70.923 22.7792 70.0479 25.7767 68.5349 27.9132H68.5385ZM71.1888 15.6432H72.6379V12.4189H71.1888V15.6432ZM87.8595 27.9132C86.2083 27.9132 85.1737 25.6775 84.7344 21.2166L82.6085 21.865C82.5199 20.7277 82.2719 19.4273 81.8573 17.9675C81.6943 20.2174 81.5455 22.0776 81.4073 23.5409C82.2435 23.4276 83.3206 23.254 84.6316 23.0414L84.8548 25.8653C82.7679 26.3259 80.2948 26.8538 77.4071 27.4137L76.5319 24.239C76.7835 24.2 77.1803 24.1504 77.733 24.0901C77.8464 24.076 77.9456 24.0512 78.0094 24.0405C78.5586 19.4415 78.92 14.2826 79.1078 8.57098H77.4319V5.34668H89.1527V8.57098H82.3285L82.2541 10.7465H87.6256C87.5122 19.9446 87.6894 24.5401 88.1748 24.5401C88.3732 24.5401 88.476 23.3036 88.476 20.841C89.0748 21.702 89.7125 22.4284 90.3999 22.9918C90.3007 24.7421 90.0739 25.9787 89.7267 26.6908C89.3405 27.5022 88.7134 27.9168 87.8524 27.9168L87.8595 27.9132ZM84.5608 18.7151C84.497 17.3156 84.4615 15.6786 84.4615 13.8184H82.1124L81.9884 15.8168L83.4624 15.3916C83.923 16.529 84.2986 17.6274 84.5608 18.7151Z" fill="#FCF2E5"/>
<path d="M52.8316 51.2805V51.1423C52.8316 51.1034 52.8316 51.0786 52.8174 51.0431C52.8174 51.0042 52.8033 50.9687 52.7926 50.9191C52.7926 50.905 52.7926 50.8802 52.7785 50.8695C52.5411 50.0333 51.7651 49.4062 50.8403 49.4062H48.4168C48.268 49.4062 48.0908 49.47 48.0908 49.6188V53.1442C48.105 53.2931 48.2786 53.4312 48.4274 53.4312H50.9006C50.975 53.4312 51.0388 53.4312 51.1132 53.4171H51.1769C51.2265 53.4171 51.2655 53.4029 51.3151 53.3923C51.3399 53.3923 51.3647 53.3781 51.3895 53.3675C51.4285 53.3675 51.4639 53.3427 51.5029 53.3285C51.5277 53.3285 51.5525 53.3037 51.5773 53.3037C51.6163 53.2895 51.6517 53.2789 51.6765 53.2647C51.7013 53.2647 51.7261 53.2399 51.7509 53.2257C51.7899 53.2116 51.8147 53.1868 51.8501 53.1761C51.8749 53.162 51.8997 53.1513 51.9245 53.1265C51.9493 53.1017 51.9883 53.0876 52.0131 53.0628C52.0379 53.0486 52.0627 53.0238 52.0875 53.0132C52.1123 52.9883 52.1371 52.9742 52.1761 52.9494C52.2009 52.9246 52.2257 52.9104 52.2399 52.8856C52.2647 52.8608 52.2895 52.836 52.3143 52.8112C52.3391 52.7864 52.3533 52.7616 52.3781 52.7474C52.4029 52.7226 52.4277 52.6978 52.4419 52.673C52.456 52.6482 52.4808 52.6234 52.4915 52.5986C52.5163 52.5738 52.5304 52.5348 52.5552 52.51C52.5694 52.4852 52.5942 52.4604 52.6048 52.4356C52.6155 52.4108 52.6438 52.3718 52.6544 52.347C52.6651 52.3222 52.6792 52.2974 52.6934 52.2585C52.7076 52.2195 52.7182 52.1947 52.7324 52.1592C52.7324 52.1344 52.7572 52.0955 52.7714 52.0707C52.7714 52.0317 52.7962 52.0069 52.7962 51.9715C52.7962 51.9467 52.8103 51.9077 52.821 51.8829C52.821 51.8439 52.8351 51.8085 52.8458 51.7837C52.8458 51.7447 52.8458 51.7199 52.8599 51.6845V51.2982L52.8351 51.2734L52.8316 51.2805Z" fill="#00961E"/>
<path d="M48.4095 57.1941C46.1596 57.1941 44.3349 55.3941 44.3242 53.1832V49.6577C44.2994 47.4468 46.0746 45.6964 48.3493 45.6823H50.7622C53.3877 45.6823 55.6589 47.3936 56.3604 49.8668C56.3604 49.9057 56.3852 49.966 56.3994 50.0049C56.4384 50.1289 56.4632 50.2423 56.488 50.3663C56.488 50.4159 56.5128 50.54 56.527 50.5896C56.5411 50.7029 56.5518 50.7774 56.5659 50.8518C56.5659 50.8907 56.5659 50.9651 56.5801 51.0006V51.8013C56.5801 51.8509 56.5659 52.0246 56.5553 52.0777C56.5553 52.1415 56.5305 52.2903 56.5163 52.3541C56.5163 52.4178 56.4774 52.5915 56.4667 52.6552C56.4526 52.7438 56.403 52.9174 56.3782 52.9918C56.364 53.0556 56.3144 53.2044 56.2896 53.2682C56.2754 53.3178 56.2258 53.4418 56.2152 53.4914C56.1904 53.5552 56.1266 53.7288 56.0912 53.7926C56.0522 53.867 55.9778 54.0158 55.9423 54.0938C55.9282 54.1328 55.8538 54.2426 55.8431 54.2816C55.8183 54.3312 55.7439 54.4446 55.7191 54.4942C55.6695 54.5686 55.5703 54.7316 55.5065 54.806C55.4817 54.8449 55.3931 54.9548 55.3683 54.9937C55.3294 55.0434 55.2195 55.1815 55.1806 55.2311C55.1416 55.2701 55.0424 55.38 55.0069 55.4189C54.9432 55.4827 54.8192 55.6067 54.7554 55.6705C54.7164 55.6953 54.6314 55.7945 54.5924 55.8193C54.5428 55.8583 54.4294 55.9575 54.3798 55.9929C54.3656 55.9929 54.2558 56.0921 54.2416 56.1063C54.1672 56.1701 54.029 56.2551 53.9404 56.3047C53.8908 56.3437 53.742 56.4287 53.6889 56.4535C53.6393 56.4783 53.5507 56.5279 53.4763 56.5669C53.4763 56.5669 53.2779 56.6661 53.2141 56.7051C53.1397 56.7441 52.9767 56.8043 52.9023 56.8291C52.8633 56.8433 52.8031 56.8681 52.7287 56.8929C52.7287 56.8929 52.6791 56.9177 52.6401 56.9177C52.6153 56.9177 52.6011 56.9319 52.5905 56.9319C52.5905 56.9319 52.4665 56.9708 52.4027 56.9815C52.3141 57.0063 52.1901 57.0453 52.1157 57.0559C51.9917 57.0807 51.8783 57.1055 51.7649 57.1197H51.7011C51.6267 57.1197 51.5523 57.1445 51.4886 57.1445C51.3256 57.1586 51.1626 57.1693 50.9996 57.1834H48.4237L48.4095 57.1976V57.1941ZM50.0075 51.6844L49.1323 51.8828C49.2457 52.2938 49.4937 52.634 49.8197 52.8714C50.1811 52.6978 50.5071 52.4604 50.7835 52.184L50.7445 51.5958L50.0075 51.695V51.6809V51.6844ZM51.0209 51.8226L51.0457 51.8722C51.0457 51.8722 51.0457 51.858 51.0598 51.8474L51.0209 51.7978V51.8226ZM51.0457 51.6738L51.1342 51.7872C51.1342 51.7872 51.159 51.7482 51.1732 51.7376L51.0492 51.6383V51.6773L51.0457 51.6738ZM49.0827 51.362V51.4506H50.4965L49.0827 51.362ZM51.1201 51.0502L51.0811 51.362L51.3043 51.323C51.2405 51.2238 51.1803 51.1352 51.1165 51.0466L51.1201 51.0502ZM49.4441 50.3876L49.3449 50.5364L50.3831 51.1104L49.4477 50.3841L49.4441 50.3876ZM49.5929 50.214C49.5929 50.214 49.554 50.253 49.5292 50.2778L50.4646 51.0537L49.6886 50.129C49.6886 50.129 49.6142 50.1927 49.5894 50.2175L49.5929 50.214ZM50.0819 50.1502L50.4433 50.7242L50.2307 50.2352C50.2307 50.2352 50.1315 50.1715 50.0819 50.1467V50.1502Z" fill="white"/>
<path d="M49.3097 38.3727C41.1002 38.3975 34.478 45.0941 34.5028 53.3285C34.5276 61.5628 41.2136 68.2099 49.4089 68.1851C57.6185 68.1603 64.2407 61.4636 64.2159 53.2293C64.1911 44.9949 57.5051 38.3479 49.3097 38.3727ZM51.1097 56.4925H48.4098C48.2609 56.4925 48.1972 56.5563 48.1972 56.7051V60.6026C48.2113 60.9534 47.935 61.2262 47.5842 61.2262H45.2847C44.9481 61.2262 44.6611 60.9499 44.6611 60.6133L44.6115 46.9791C44.6115 46.6283 44.8878 46.3555 45.2351 46.3555L51.0565 46.3307H51.1309C53.8911 46.3555 56.1304 48.6054 56.1304 51.3797C56.1304 54.154 53.8804 56.4642 51.0955 56.4642L51.1097 56.489V56.4925Z" fill="#00961E"/>
<path d="M52.7182 51.1707V51.0326C52.7182 50.9936 52.7182 50.9688 52.704 50.9333C52.704 50.8944 52.6899 50.8589 52.6792 50.8093C52.6792 50.7952 52.6792 50.7704 52.6651 50.7597C52.4277 49.9235 51.6517 49.2964 50.727 49.2964H48.3034C48.1546 49.2964 48.0908 49.3602 48.0908 49.509V53.0947C48.105 53.2435 48.1652 53.3073 48.314 53.3073H50.7872C50.8616 53.3073 50.9254 53.3073 50.9998 53.2931H51.0636C51.1132 53.2931 51.1521 53.2789 51.2017 53.2683C51.2265 53.2683 51.2513 53.2541 51.2761 53.2435C51.3151 53.2435 51.3506 53.2187 51.3895 53.2045C51.4143 53.2045 51.4391 53.1797 51.4639 53.1797C51.5029 53.1655 51.5383 53.1549 51.5631 53.1407C51.5879 53.1407 51.6127 53.1159 51.6375 53.1018C51.6765 53.0876 51.7013 53.0628 51.7368 53.0522C51.7616 53.038 51.7864 53.0274 51.8112 53.0026C51.836 52.9778 51.8749 52.9636 51.8997 52.9388C51.9245 52.9246 51.9493 52.8998 51.9742 52.8892C51.999 52.8644 52.0238 52.8502 52.0627 52.8254C52.0875 52.8006 52.1123 52.7864 52.1265 52.7616C52.1513 52.7368 52.1761 52.712 52.2009 52.6872C52.2257 52.6624 52.2399 52.6376 52.2647 52.6234C52.2895 52.5986 52.3143 52.5738 52.3285 52.549C52.3426 52.5242 52.3674 52.4994 52.3781 52.4746C52.4029 52.4498 52.4171 52.4108 52.4419 52.386C52.456 52.3612 52.4808 52.3364 52.4915 52.3116C52.5056 52.2868 52.5304 52.2479 52.5411 52.2231C52.5552 52.1983 52.5659 52.1735 52.58 52.1345C52.5942 52.0955 52.6048 52.0707 52.619 52.0353C52.619 52.0105 52.6438 51.9715 52.658 51.9467C52.658 51.9077 52.6828 51.8829 52.6828 51.8475C52.6828 51.8227 52.697 51.7837 52.7076 51.7589C52.7076 51.7199 52.7218 51.6845 52.7324 51.6597C52.7324 51.6207 52.7324 51.5959 52.7466 51.5605V51.1743L52.7218 51.1601L52.7182 51.1707Z" fill="#07B53B"/>
<path d="M48.3104 57.0807C46.0853 57.0807 44.3492 55.3446 44.335 53.1336V49.5337C44.3102 47.3228 46.0357 45.5725 48.2467 45.5618H50.6596C53.2851 45.5618 55.5456 47.2732 56.2578 49.7357C56.272 49.7853 56.2968 49.8845 56.3074 49.9341C56.3322 50.0333 56.357 50.1325 56.3712 50.2353C56.3854 50.2991 56.4102 50.4585 56.4208 50.5365C56.4208 50.5754 56.435 50.6357 56.4456 50.6995C56.4456 50.788 56.4704 50.8872 56.4704 50.9758V51.7376C56.4704 51.7872 56.4456 51.9502 56.4456 52.014C56.4456 52.0778 56.4208 52.2372 56.4066 52.301C56.4066 52.3647 56.3676 52.5242 56.357 52.588C56.357 52.6269 56.318 52.7616 56.3074 52.8006C56.2826 52.8891 56.233 53.0628 56.2082 53.1372C56.194 53.1868 56.1444 53.3108 56.1338 53.3604C56.0948 53.449 56.0204 53.6226 55.985 53.7112C55.9708 53.7501 55.9106 53.86 55.8964 53.8989C55.8716 53.9486 55.7972 54.0974 55.7724 54.1505C55.7476 54.2001 55.6732 54.3135 55.6484 54.3631C55.6094 54.4269 55.5102 54.5757 55.4748 54.6253C55.4358 54.6749 55.3507 54.7989 55.3011 54.8485C55.2763 54.8875 55.1771 55.0115 55.1382 55.0469C55.0886 55.0965 54.9893 55.2206 54.9397 55.2702C54.8901 55.3198 54.8157 55.3942 54.752 55.4579C54.752 55.4579 54.6386 55.5713 54.6138 55.5961C54.5394 55.6705 54.3905 55.7839 54.3126 55.8477C54.2984 55.8477 54.1886 55.9469 54.1744 55.9611C54.1 56.0249 53.9618 56.1099 53.8732 56.1595C53.8236 56.1985 53.6748 56.2835 53.6217 56.3083C53.5579 56.3473 53.3843 56.4323 53.3205 56.4713C53.2815 56.4855 53.1717 56.5457 53.1469 56.5599C53.0725 56.5989 52.9095 56.6591 52.8209 56.6981C52.7323 56.737 52.6225 56.7725 52.5445 56.7973C52.4949 56.8115 52.4205 56.8362 52.332 56.8611C52.2575 56.8859 52.1335 56.9107 52.0556 56.9355C51.9174 56.9603 51.804 56.9851 51.68 57.0099C51.6552 57.0099 51.6162 57.0099 51.6056 57.024C51.5418 57.024 51.4816 57.0488 51.4072 57.0488C51.2442 57.063 51.0812 57.0736 50.9182 57.0878H48.3069L48.3104 57.0807ZM49.6958 51.5959L49.0332 51.7447C49.1573 52.1699 49.4088 52.5206 49.7348 52.758C50.0856 52.5951 50.408 52.3718 50.6985 52.1096L50.6596 51.4719L49.71 51.6101L49.6958 51.5959ZM50.9218 51.6951L50.897 51.8829C50.897 51.8829 50.9607 51.8191 50.9855 51.7837L50.9218 51.6951ZM50.9607 51.5711L51.0599 51.6951L51.0848 51.6703L50.9714 51.5711H50.9572H50.9607ZM50.9607 51.4719L51.1237 51.6207L51.1485 51.5817L50.9607 51.4683V51.4719ZM51.1096 51.4081L51.2336 51.4577C51.2336 51.4577 51.2584 51.4187 51.2725 51.4081H51.1096ZM48.9836 51.2345V51.323L50.4222 51.2982L49.0474 50.8872L48.9978 51.238H48.9836V51.2345ZM51.021 50.9085L50.982 51.2345L51.2336 51.1955C51.1698 51.0963 51.0954 50.9971 51.021 50.9085ZM49.5116 50.0829C49.5116 50.0829 49.4868 50.1077 49.4726 50.1219L50.3832 50.9475L49.5966 50.0085C49.5966 50.0085 49.547 50.0581 49.508 50.0829H49.5116ZM49.2884 50.3451L50.1494 50.8837L49.3734 50.2353L49.2848 50.3487L49.2884 50.3451ZM49.9899 50.044L50.3159 50.5684L50.1529 50.1432C50.1529 50.1432 50.0537 50.0794 49.9899 50.0546V50.0404V50.044Z" fill="white"/>
<path d="M49.2069 38.2735C40.9974 38.2983 34.3752 44.9949 34.4 53.2293C34.4248 61.4637 41.1108 68.1107 49.3062 68.0859C57.5157 68.0611 64.1379 61.3645 64.1131 53.1301C64.0883 44.8957 57.4165 38.2487 49.2069 38.2735ZM51.0069 56.3934H48.307C48.1582 56.3934 48.0944 56.4571 48.0944 56.606V60.5035C48.1086 60.8542 47.8322 61.1271 47.4814 61.1271H45.1819C44.8453 61.1271 44.5583 60.8507 44.5583 60.5141L44.5087 46.8799C44.5087 46.5291 44.7851 46.2563 45.1323 46.2563L50.9537 46.2315H51.0281C53.7883 46.2563 56.0276 48.5062 56.0276 51.2805C56.0276 54.0549 53.7777 56.365 50.9927 56.365L51.0069 56.3898V56.3934Z" fill="#07B53B"/>
<path d="M52.6196 72.3133C47.6698 72.3133 43.0105 70.3894 39.4992 66.8887C35.9737 63.3774 34.0249 58.7039 34.0001 53.7187C33.9612 43.4363 42.2841 35.039 52.5452 35C57.495 35 62.2039 36.9133 65.7294 40.4246C69.2548 43.9359 71.2036 48.6094 71.2142 53.5946C71.2532 63.877 62.9303 72.2743 52.6692 72.3133H52.6054H52.6196ZM55.2203 60.5924V60.9928C55.2203 62.6298 54.3345 64.0683 52.9952 64.8159C58.969 64.6175 63.7558 59.6677 63.7275 53.6336C63.7275 51.9081 63.3271 50.2463 62.5901 48.7476C62.9515 49.6971 63.1393 50.7211 63.1535 51.7983C63.1676 56.3831 59.6812 60.1708 55.2203 60.6066V60.5924ZM44.2612 46.3205C42.5357 48.294 41.4869 50.8806 41.5011 53.7045C41.5011 56.3796 42.4506 58.9165 44.1762 60.9255L44.1266 47.4047C44.1266 47.0291 44.1655 46.6677 44.2506 46.3169H44.2647L44.2612 46.3205ZM51.6346 50.505V53.1411H54.3451C55.0715 53.1411 55.6455 52.5423 55.6455 51.816C55.6455 51.0896 55.0573 50.505 54.3451 50.4908H51.6346V50.505ZM54.3203 43.0076H54.4195C55.3053 43.0076 56.1557 43.1564 56.9671 43.4186C55.6065 42.8304 54.129 42.5328 52.5948 42.5328H52.5558C51.4184 42.5328 50.3307 42.7064 49.3067 43.0324H54.292C54.292 43.0324 54.292 43.0182 54.3168 43.0182V43.0041L54.3203 43.0076Z" fill="white"/>
<path d="M100.102 44.4851C100.328 44.4851 100.502 44.3115 100.502 44.0848V42.586C100.502 42.3628 100.328 42.1856 100.102 42.1856H94.1775C93.9542 42.1856 93.7771 42.3592 93.7771 42.586V51.7699C93.7771 51.9932 93.9507 52.1809 94.1775 52.1809H100.102C100.328 52.1809 100.502 52.0073 100.502 51.7806V50.2818C100.502 50.0586 100.328 49.8814 100.102 49.8814H96.0802V48.333H100.102C100.328 48.333 100.502 48.1594 100.502 47.9327V46.4339C100.502 46.2107 100.328 46.0335 100.102 46.0335H96.0802V44.4851H100.102Z" fill="#07B53B"/>
<path d="M100.102 55.1643H94.1812C92.3175 55.1643 90.801 53.6442 90.801 51.7734V42.5895C90.801 40.7258 92.3175 39.2093 94.1812 39.2093H100.102C101.966 39.2093 103.482 40.7258 103.482 42.5895V44.0883C103.482 44.5028 103.408 44.8961 103.273 45.2611C103.408 45.626 103.482 46.0228 103.482 46.4338V47.9326C103.482 48.3472 103.408 48.7405 103.273 49.1054C103.408 49.4704 103.482 49.8672 103.482 50.2782V51.777C103.482 53.6407 101.966 55.1572 100.102 55.1572V55.1643Z" fill="white"/>
<path d="M78.2086 49.885H74.1836V42.586C74.1836 42.3628 74.0099 42.1856 73.7832 42.1856H72.2844C72.0612 42.1856 71.884 42.3592 71.884 42.586V51.7699C71.884 51.9932 72.0577 52.1809 72.2844 52.1809H78.2086C78.4318 52.1809 78.609 52.0073 78.609 51.7806V50.2818C78.609 50.0586 78.4354 49.8814 78.2086 49.8814V49.885Z" fill="#07B53B"/>
<path d="M78.2086 55.1643H72.2879C70.4242 55.1643 68.9077 53.6442 68.9077 51.7734V42.5895C68.9077 40.7258 70.4242 39.2093 72.2879 39.2093H73.7867C75.6504 39.2093 77.1669 40.7258 77.1669 42.5895V46.9086H78.2121C80.0758 46.9086 81.5923 48.4251 81.5923 50.2888V51.7876C81.5923 53.6513 80.0758 55.1678 78.2121 55.1678L78.2086 55.1643Z" fill="white"/>
<path d="M81.7693 42.1856H80.2705C80.0508 42.1856 79.8701 42.3663 79.8701 42.586V51.7841C79.8701 52.0038 80.0508 52.1845 80.2705 52.1845H81.7693C81.9889 52.1845 82.1696 52.0038 82.1696 51.7841V42.586C82.1696 42.3663 81.9889 42.1856 81.7693 42.1856Z" fill="#07B53B"/>
<path d="M80.2706 39.2093H81.7693C83.6331 39.2093 85.1495 40.7222 85.1495 42.5895V51.7876C85.1495 53.6513 83.6366 55.1678 81.7693 55.1678H80.2706C78.4069 55.1678 76.8904 53.6549 76.8904 51.7876V42.5895C76.8904 40.7258 78.4033 39.2093 80.2706 39.2093Z" fill="white"/>
<path d="M91.9421 42.1855H90.4433C90.2201 42.1855 90.0429 42.3592 90.0429 42.5859V48.046L85.8336 42.3592C85.8336 42.3592 85.8088 42.3344 85.7947 42.3202C85.7947 42.3202 85.7805 42.306 85.7699 42.2954C85.7699 42.2954 85.7557 42.2812 85.7451 42.2812C85.7451 42.2812 85.7309 42.2812 85.7202 42.267H85.621C85.621 42.267 85.621 42.267 85.6069 42.267H84.0195C83.7963 42.267 83.6191 42.4407 83.6191 42.6674V51.8655C83.6191 52.0888 83.7928 52.2659 84.0195 52.2659H85.5183C85.7415 52.2659 85.9187 52.0923 85.9187 51.8655V46.4055L90.128 52.0923C90.128 52.0923 90.1918 52.1667 90.2272 52.1915C90.2272 52.1915 90.2414 52.1915 90.252 52.2057H90.3406C90.3795 52.2057 90.415 52.2199 90.4398 52.2199H91.9279C92.1511 52.2199 92.3283 52.0462 92.3283 51.8195V42.6214C92.3283 42.3981 92.1547 42.221 91.9279 42.221L91.9421 42.182V42.1855Z" fill="#07B53B"/>
<path d="M85.5181 55.2493H84.0194C82.1556 55.2493 80.6392 53.7328 80.6392 51.8691V42.6745C80.6392 40.8108 82.1556 39.2943 84.0194 39.2943H85.6067C85.7272 39.2943 85.8477 39.3014 85.9717 39.3156C86.6838 39.3723 87.3712 39.6876 87.8779 40.1908L87.97 40.2864C88.5865 39.6238 89.4688 39.2057 90.4432 39.2057H91.9419C92.4238 39.2057 92.8915 39.3227 93.3096 39.5388C94.4859 40.0667 95.308 41.2502 95.308 42.6214V51.8195C95.308 53.6832 93.7915 55.1997 91.9278 55.1997H90.4396C90.3121 55.1997 90.1668 55.1891 90.0286 55.1714L89.9542 55.1643H89.9896C89.9896 55.1643 89.9648 55.1643 89.9542 55.1643C89.3235 55.0863 88.6893 54.8206 88.2322 54.3989C88.668 54.8029 89.2101 55.058 89.7912 55.1465C89.3589 55.0828 88.9408 54.9233 88.5759 54.6789C88.3704 54.5407 88.172 54.3741 87.9877 54.1757C87.3712 54.8383 86.489 55.2528 85.5146 55.2528L85.5181 55.2493ZM90.0109 55.1678C90.0747 55.1714 90.1385 55.1749 90.2022 55.1749C90.1385 55.1749 90.0747 55.1749 90.0109 55.1678Z" fill="white"/>
<path d="M71.8873 55.7206C71.8873 55.4973 72.0609 55.3202 72.2877 55.3202H75.4128C77.8859 55.3202 79.5229 56.656 79.5229 58.6827C79.5229 60.7094 77.8859 62.0948 75.3986 62.0948H74.3853V64.6317C74.3853 64.8549 74.2117 65.0321 73.9849 65.0321H72.2842C72.061 65.0321 71.8838 64.8584 71.8838 64.6317V55.7206H71.8873ZM74.3853 57.5205V59.8944H75.6112C76.373 59.8944 76.8726 59.4055 76.8726 58.6827C76.8726 57.9599 76.373 57.5205 75.6112 57.5205H74.3853Z" fill="#07B53B"/>
<path d="M73.985 68.0083H72.2843C70.4205 68.0083 68.9041 66.4918 68.9041 64.6281V55.717C68.9041 53.8533 70.4205 52.3368 72.2843 52.3368H75.4093C79.5159 52.3368 82.4993 55.0048 82.4993 58.6756C82.4993 61.7617 80.4265 64.1391 77.3546 64.8478C77.2376 66.6052 75.7707 68.0012 73.985 68.0012V68.0083Z" fill="white"/>
<path d="M90.6167 60.1815C90.6167 62.9806 88.3313 65.2553 85.5322 65.2553C82.7331 65.2553 80.4478 62.9699 80.4478 60.1708C80.4478 57.3717 82.7331 55.097 85.5322 55.097C88.3313 55.097 90.6167 57.3823 90.6167 60.1815ZM87.931 60.1815C87.931 58.7571 86.8574 57.5949 85.5181 57.5949C84.1787 57.5949 83.1051 58.7429 83.1051 60.1708C83.1051 61.5987 84.1787 62.7574 85.5181 62.7574C86.8574 62.7574 87.931 61.6094 87.931 60.1815Z" fill="#07B53B"/>
<path d="M85.5323 68.2351C81.0856 68.2351 77.468 64.6175 77.468 60.1708C77.468 55.7241 81.0856 52.1171 85.5323 52.1171C89.979 52.1171 93.5966 55.7347 93.5966 60.1814C93.5966 64.6281 89.979 68.2351 85.5323 68.2351ZM85.5181 59.7775C85.1993 59.7775 84.9512 59.9936 84.9512 60.1814C84.9512 60.3692 85.1993 60.5747 85.5181 60.5747C85.837 60.5747 86.085 60.355 86.085 60.1708C86.085 59.9865 85.837 59.7775 85.5181 59.7775Z" fill="white"/>
<path d="M92.1052 55.3201H93.8059C94.0292 55.3201 94.2063 55.4937 94.2063 55.7205V64.6316C94.2063 64.8548 94.0327 65.032 93.8059 65.032H92.1052C91.882 65.032 91.7048 64.8584 91.7048 64.6316V55.7205C91.7048 55.4973 91.8785 55.3201 92.1052 55.3201Z" fill="#07B53B"/>
<path d="M92.1051 52.3403H93.8058C95.6695 52.3403 97.186 53.8533 97.186 55.7205V64.6316C97.186 66.4954 95.673 68.0118 93.8058 68.0118H92.1051C90.2413 68.0118 88.7249 66.4989 88.7249 64.6316V55.7241C88.7249 53.8604 90.2378 52.3439 92.1051 52.3439V52.3403Z" fill="white"/>
<path d="M98.5286 59.494V64.6175C98.5286 64.8407 98.355 65.0178 98.1282 65.0178H96.4275C96.2043 65.0178 96.0271 64.8442 96.0271 64.6175V55.7064C96.0271 55.4831 96.2007 55.306 96.4275 55.306H98.4896C98.6278 55.306 98.7518 55.3804 98.8262 55.4938L102.263 60.929V55.7064C102.263 55.4831 102.437 55.306 102.663 55.306H104.364C104.591 55.306 104.765 55.4796 104.765 55.7064V64.6175C104.765 64.8407 104.591 65.0178 104.364 65.0178H102.302C102.164 65.0178 102.04 64.9434 101.965 64.8301L98.5286 59.4834V59.4976V59.494Z" fill="#07B53B"/>
<path d="M104.364 67.9941H102.302C101.537 67.9941 100.803 67.7355 100.215 67.2713C99.6412 67.7249 98.9149 67.9941 98.1283 67.9941H96.4276C94.5638 67.9941 93.0474 66.4777 93.0474 64.6139V55.7028C93.0474 53.8391 94.5638 52.3226 96.4276 52.3226H98.4897C99.2586 52.3226 99.9885 52.5813 100.577 53.0454C101.151 52.5919 101.877 52.3226 102.664 52.3226H104.364C106.228 52.3226 107.744 53.8391 107.744 55.7028V64.6139C107.744 66.4777 106.228 67.9941 104.364 67.9941Z" fill="white"/>
<path d="M110.972 57.6551V64.6139C110.972 64.8371 110.798 65.0143 110.572 65.0143H108.871C108.644 65.0143 108.471 64.8407 108.471 64.6139V57.6551H106.221C105.997 57.6551 105.82 57.4815 105.82 57.2547V55.7064C105.82 55.4831 105.994 55.306 106.221 55.306H113.233C113.456 55.306 113.633 55.4796 113.633 55.7064V57.2547C113.633 57.4779 113.459 57.6551 113.233 57.6551H110.972Z" fill="#07B53B"/>
<path d="M110.572 67.9941H108.871C107.007 67.9941 105.491 66.4777 105.491 64.6139V60.5534C103.978 60.2204 102.844 58.8669 102.844 57.2547V55.7064C102.844 53.8427 104.361 52.3262 106.221 52.3262H113.233C115.097 52.3262 116.61 53.8427 116.61 55.7064V57.2547C116.61 58.8704 115.469 60.2275 113.949 60.557V64.6139C113.949 66.4777 112.432 67.9941 110.568 67.9941H110.572Z" fill="white"/>
<path d="M120.521 58.2434C120.358 58.4063 120.096 58.3922 119.947 58.2434C119.511 57.7934 118.859 57.4426 118.098 57.4426C117.47 57.4426 117.173 57.68 117.173 58.0308C117.173 59.2921 121.91 58.7181 121.91 62.1054C121.91 63.9054 120.323 65.2553 118.037 65.2553C116.074 65.2553 114.962 64.5679 114.314 63.7424C114.189 63.5794 114.2 63.342 114.352 63.1932L115.564 62.0558C115.727 61.907 115.975 61.907 116.128 62.07C116.652 62.6334 117.315 62.8956 118.091 62.8956C118.867 62.8956 119.242 62.6582 119.242 62.194C119.242 60.883 114.505 61.496 114.505 58.0697C114.505 56.3336 116.067 55.0722 118.215 55.0722C119.738 55.0722 120.95 55.671 121.701 56.5603C121.839 56.7233 121.814 56.9465 121.676 57.0989L120.539 58.2363L120.528 58.2504L120.521 58.2434Z" fill="#07B53B"/>
<path d="M118.034 68.2351C114.746 68.2351 112.921 66.7966 111.968 65.5883C110.912 64.2136 111.04 62.2896 112.241 61.0885L112.297 61.0318C111.823 60.2558 111.518 59.2886 111.518 58.0697C111.518 54.6612 114.395 52.0923 118.207 52.0923C120.503 52.0923 122.604 53.0207 123.969 54.6364C125.021 55.8836 125.017 57.7118 123.983 58.9697C124.525 59.7704 124.883 60.7944 124.883 62.1054C124.883 65.599 121.938 68.2316 118.03 68.2316L118.034 68.2351Z" fill="white"/>
<path d="M82.7112 65.7828C86.8245 65.7828 90.159 62.6704 90.159 58.8311C90.159 54.9917 86.8245 51.8793 82.7112 51.8793C78.5979 51.8793 75.2634 54.9917 75.2634 58.8311C75.2634 62.6704 78.5979 65.7828 82.7112 65.7828Z" fill="white"/>
<path d="M59.854 42.5217C57.1541 39.8112 53.4054 38.1353 49.2812 38.1494C41.0716 38.1742 34.4494 44.8709 34.4742 53.1052C34.4884 57.2543 36.1855 61.003 38.9244 63.6887C41.6243 66.3993 45.373 68.0752 49.4973 68.061C57.7069 68.0362 64.3291 61.3396 64.3043 53.1052C64.2901 48.9562 62.5929 45.2075 59.854 42.5217Z" fill="white"/>
<path d="M56.1662 51.5325V51.3943C56.1662 51.3553 56.1662 51.3305 56.152 51.2951C56.152 51.2561 56.1379 51.2207 56.1272 51.1711C56.1272 51.1569 56.1272 51.1321 56.1131 51.1215C55.8757 50.2853 55.0997 49.6581 54.175 49.6581H51.7514C51.6026 49.6581 51.5388 49.7219 51.5388 49.8707V53.4564C51.553 53.6053 51.6132 53.669 51.7656 53.669H54.2387C54.3131 53.669 54.3769 53.669 54.4513 53.6549H54.5151C54.5647 53.6549 54.6037 53.6407 54.6533 53.6301C54.6781 53.6301 54.7029 53.6159 54.7277 53.6053C54.7667 53.6053 54.8021 53.5805 54.8411 53.5663C54.8659 53.5663 54.8907 53.5415 54.9155 53.5415C54.9544 53.5273 54.9899 53.5167 55.0147 53.5025C55.0395 53.5025 55.0643 53.4777 55.0891 53.4635C55.1281 53.4494 55.1529 53.4246 55.1883 53.4139C55.2131 53.3997 55.2379 53.3891 55.2627 53.3643C55.2875 53.3395 55.3265 53.3253 55.3513 53.3005C55.3761 53.2864 55.4009 53.2616 55.4257 53.2509C55.4505 53.2261 55.4753 53.212 55.5143 53.1872C55.5391 53.1624 55.5639 53.1482 55.578 53.1234C55.6029 53.0986 55.6277 53.0738 55.6525 53.049C55.6773 53.0242 55.6914 52.9994 55.7162 52.9852C55.741 52.9604 55.7658 52.9356 55.78 52.9108C55.7942 52.886 55.819 52.8612 55.8296 52.8364C55.8544 52.8116 55.8686 52.7726 55.8934 52.7478C55.9076 52.723 55.9324 52.6982 55.943 52.6734C55.9536 52.6486 55.982 52.6096 55.9926 52.5848C56.0068 52.56 56.0174 52.5352 56.0316 52.4962C56.0457 52.4573 56.0564 52.4325 56.0706 52.397C56.0706 52.3722 56.0954 52.3333 56.1095 52.3084C56.1095 52.2695 56.1343 52.2447 56.1343 52.2092C56.1343 52.1844 56.1485 52.1455 56.1591 52.1207C56.1591 52.0817 56.1733 52.0463 56.1839 52.0215C56.1839 51.9825 56.1839 51.9577 56.1981 51.9222V51.536L56.1733 51.5219L56.1662 51.5325Z" fill="#07B53B"/>
<path d="M52.6442 38.6389C44.4346 38.6637 37.8124 45.3603 37.8372 53.5947C37.862 61.829 44.548 68.476 52.7434 68.4512C60.953 68.4264 67.5752 61.7298 67.5504 53.4954C67.5256 45.2611 60.8538 38.6141 52.6442 38.6389ZM54.4441 56.7587H51.7442C51.5954 56.7587 51.5316 56.8225 51.5316 56.9713V60.8688C51.5458 61.2196 51.2694 61.4924 50.9187 61.4924H48.6191C48.2825 61.4924 47.9955 61.2161 47.9955 60.8794L47.9459 47.2453C47.9459 46.8945 48.2223 46.6217 48.5695 46.6217L54.391 46.5969H54.4654C57.2255 46.6217 59.4648 48.8716 59.4648 51.6459C59.4648 54.4202 57.2149 56.7304 54.43 56.7304L54.4441 56.7552V56.7587Z" fill="#07B53B"/>
<path d="M100.176 44.3611C100.399 44.3611 100.577 44.1875 100.577 43.9607V42.462C100.577 42.2387 100.399 42.0616 100.176 42.0616H94.2519C94.0287 42.0616 93.8516 42.2352 93.8516 42.462V51.6459C93.8516 51.8691 94.0252 52.0569 94.2519 52.0569H100.176C100.399 52.0569 100.577 51.8833 100.577 51.6565V50.1578C100.577 49.9345 100.399 49.7574 100.176 49.7574H96.1511V48.209H100.176C100.399 48.209 100.577 48.0354 100.577 47.8086V46.3099C100.577 46.0866 100.399 45.9095 100.176 45.9095H96.1511V44.3611H100.176Z" fill="#07B53B"/>
<path d="M78.2828 49.7609H74.2578V42.462C74.2578 42.2387 74.0842 42.0616 73.8574 42.0616H72.3586C72.1354 42.0616 71.9583 42.2352 71.9583 42.462V51.6459C71.9583 51.8691 72.1319 52.0569 72.3586 52.0569H78.2828C78.5061 52.0569 78.6832 51.8833 78.6832 51.6565V50.1578C78.6832 49.9345 78.5096 49.7574 78.2828 49.7574V49.7609Z" fill="#07B53B"/>
<path d="M81.8579 42.0616H80.3591C80.1394 42.0616 79.9587 42.2423 79.9587 42.462V51.6601C79.9587 51.8798 80.1394 52.0605 80.3591 52.0605H81.8579C82.0776 52.0605 82.2583 51.8798 82.2583 51.6601V42.462C82.2583 42.2423 82.0776 42.0616 81.8579 42.0616Z" fill="#07B53B"/>
<path d="M92.0163 42.0616H90.5175C90.2943 42.0616 90.1172 42.2352 90.1172 42.462V47.922L85.9079 42.2352C85.9079 42.2352 85.8831 42.2104 85.8689 42.1962C85.8689 42.1962 85.8547 42.1821 85.8441 42.1714C85.8441 42.1714 85.8299 42.1573 85.8193 42.1573C85.8193 42.1573 85.8051 42.1573 85.7945 42.1431H84.0937C83.8705 42.1431 83.6934 42.3167 83.6934 42.5435V51.7416C83.6934 51.9648 83.867 52.142 84.0937 52.142H85.5925C85.8157 52.142 85.9929 51.9683 85.9929 51.7416V46.2815L90.2057 51.9683C90.2057 51.9683 90.2695 52.0427 90.3049 52.0675C90.3049 52.0675 90.3191 52.0675 90.3298 52.0817H90.4183C90.4573 52.0817 90.4927 52.0959 90.5175 52.0959H92.0057C92.2289 52.0959 92.4061 51.9223 92.4061 51.6955V42.4974C92.4061 42.2742 92.2324 42.097 92.0057 42.097L92.0198 42.058L92.0163 42.0616Z" fill="#07B53B"/>
<path d="M71.9618 55.5965C71.9618 55.3733 72.1354 55.1962 72.3622 55.1962H75.4873C77.9604 55.1962 79.5974 56.532 79.5974 58.5587C79.5974 60.5854 77.9604 61.9707 75.4731 61.9707H74.4597V64.5077C74.4597 64.7309 74.2861 64.908 74.0594 64.908H72.3586C72.1354 64.908 71.9583 64.7344 71.9583 64.5077V55.5965H71.9618ZM74.4597 57.3965V59.7704H75.6857C76.4475 59.7704 76.9471 59.2815 76.9471 58.5587C76.9471 57.8358 76.4475 57.3965 75.6857 57.3965H74.4597Z" fill="#07B53B"/>
<path d="M90.7053 60.0574C90.7053 62.8565 88.42 65.1312 85.6209 65.1312C82.8217 65.1312 80.5364 62.8459 80.5364 60.0467C80.5364 57.2476 82.8217 54.9729 85.6209 54.9729C88.42 54.9729 90.7053 57.2583 90.7053 60.0574ZM88.0196 60.0574C88.0196 58.633 86.946 57.4708 85.6067 57.4708C84.2674 57.4708 83.1938 58.6188 83.1938 60.0467C83.1938 61.4747 84.2674 62.6333 85.6067 62.6333C86.946 62.6333 88.0196 61.4853 88.0196 60.0574Z" fill="#07B53B"/>
<path d="M92.1934 55.182H93.8941C94.1173 55.182 94.2945 55.3556 94.2945 55.5824V64.4935C94.2945 64.7167 94.1208 64.8939 93.8941 64.8939H92.1934C91.9701 64.8939 91.793 64.7203 91.793 64.4935V55.5824C91.793 55.3592 91.9666 55.182 92.1934 55.182Z" fill="#07B53B"/>
<path d="M98.6031 59.3701V64.4935C98.6031 64.7167 98.4294 64.8939 98.2027 64.8939H96.5019C96.2787 64.8939 96.1016 64.7203 96.1016 64.4935V55.5824C96.1016 55.3592 96.2752 55.182 96.5019 55.182H98.5641C98.7023 55.182 98.8263 55.2564 98.9007 55.3698L102.338 60.805V55.5824C102.338 55.3592 102.511 55.182 102.738 55.182H104.439C104.662 55.182 104.839 55.3556 104.839 55.5824V64.4935C104.839 64.7167 104.662 64.8939 104.439 64.8939H102.377C102.238 64.8939 102.114 64.8195 102.04 64.7061L98.6031 59.3594V59.3736V59.3701Z" fill="#07B53B"/>
<path d="M111.061 57.5311V64.49C111.061 64.7132 110.887 64.8903 110.661 64.8903H108.96C108.737 64.8903 108.559 64.7167 108.559 64.49V57.5311H106.31C106.086 57.5311 105.909 57.3575 105.909 57.1308V55.5824C105.909 55.3592 106.083 55.182 106.31 55.182H113.322C113.545 55.182 113.722 55.3556 113.722 55.5824V57.1308C113.722 57.354 113.548 57.5311 113.322 57.5311H111.061Z" fill="#07B53B"/>
<path d="M120.606 58.1193C120.443 58.2823 120.181 58.2681 120.032 58.1193C119.596 57.6693 118.944 57.3185 118.183 57.3185C117.555 57.3185 117.258 57.5559 117.258 57.9067C117.258 59.1681 121.995 58.5941 121.995 61.9813C121.995 63.7813 120.408 65.1312 118.122 65.1312C116.159 65.1312 115.047 64.4439 114.398 63.6183C114.274 63.4553 114.285 63.2179 114.437 63.0691L115.649 61.9317C115.812 61.7829 116.06 61.7829 116.213 61.9459C116.737 62.5093 117.4 62.7715 118.175 62.7715C118.951 62.7715 119.327 62.5341 119.327 62.0699C119.327 60.7589 114.59 61.3684 114.59 57.9457C114.59 56.2095 116.152 54.9481 118.3 54.9481C119.823 54.9481 121.035 55.5469 121.786 56.4363C121.924 56.5992 121.899 56.8225 121.761 56.9748L120.624 58.1122L120.613 58.1264L120.606 58.1193Z" fill="#07B53B"/>
<path d="M190.052 11.0087C190.18 10.8776 190.307 10.7465 190.435 10.6118C191.271 9.73668 191.696 8.54262 191.597 7.3344C191.501 6.12617 190.892 5.01715 189.925 4.28371L187.15 2.18615C186.406 1.62278 185.503 1.32515 184.585 1.32515C184.252 1.32515 183.915 1.36413 183.582 1.44562L183.253 1.52711H168.542C167.535 1.52711 166.61 1.87789 165.884 2.46252C165.19 1.72553 164.233 1.22949 163.149 1.14091L160.75 0.942488C160.633 0.931858 160.516 0.928315 160.396 0.928315C160.08 0.928315 159.762 0.963748 159.453 1.03461L159.368 1.05233H155.418L152.005 0.240937C151.676 0.162987 151.346 0.124011 151.02 0.124011C149.922 0.124011 148.884 0.552737 148.108 1.28263C147.431 0.864537 146.659 0.648404 145.876 0.648404C145.497 0.648404 145.118 0.698007 144.749 0.80076C144.21 0.566909 143.633 0.449985 143.052 0.449985C142.173 0.449985 141.294 0.719268 140.543 1.26846L138.58 2.70345C138.222 2.60424 137.843 2.54755 137.454 2.54755H134.864C134.272 1.83183 133.457 1.31807 132.529 1.10547L128.705 0.230308C128.387 0.155901 128.068 0.124011 127.756 0.124011C126.82 0.124011 125.924 0.435812 125.198 0.981463L122.717 0.198419C122.292 0.0637778 121.86 0 121.435 0C119.826 0 118.31 0.914142 117.591 2.43771C117.187 3.29162 116.648 4.1349 116 4.95692C115.326 3.49358 113.852 2.47669 112.138 2.47669H92.9937C92.6146 2.47669 92.2461 2.52984 91.8953 2.6255C91.1193 1.7964 90.021 1.27909 88.795 1.27909H78.7891C78.541 1.1728 78.2788 1.08776 78.0096 1.02752L74.5868 0.276368C74.2857 0.209048 73.981 0.177159 73.6762 0.177159C72.9145 0.177159 72.1633 0.382664 71.5007 0.775957C70.9019 0.4677 70.2358 0.30117 69.552 0.30117C69.1268 0.30117 68.6981 0.364948 68.2729 0.499589L65.4986 1.37476C64.3258 1.74325 63.3691 2.60424 62.8766 3.73452C62.455 4.70535 62.4124 5.79311 62.7455 6.7852C62.6109 6.95173 62.4904 7.13243 62.3841 7.32022C61.7499 5.73996 60.7259 4.36521 59.3547 3.29871C57.2465 1.65821 54.3871 0.793674 51.0778 0.793674C47.7685 0.793674 44.7071 1.89915 41.8194 4.16324C41.3128 2.38456 39.6758 1.08067 37.7341 1.08067H17.5911C15.242 1.08067 13.3393 2.98336 13.3393 5.3325V11.8555C13.3393 13.0566 13.8389 14.1409 14.6397 14.9168V21.4717C13.1692 21.865 12.0071 23.0272 11.6244 24.5224C11.2063 26.1593 11.7945 27.892 13.1303 28.9301C13.7468 29.4084 14.4519 30.1065 15.2243 31.0029C16.0428 31.9525 17.2262 32.4769 18.4415 32.4769C18.8171 32.4769 19.1962 32.4272 19.5718 32.3245C21.1343 31.8922 22.7252 31.3537 24.2984 30.723C24.3055 30.723 24.3161 30.7159 24.3232 30.7123C25.4676 30.2446 26.5093 29.7521 27.4376 29.2455C29.8683 30.0923 31.8773 30.9604 33.4185 31.8284C34.0634 32.1934 34.7862 32.3776 35.509 32.3776C36.0937 32.3776 36.6818 32.2572 37.2346 32.0127L41.2348 30.2376C41.4616 30.1383 41.6706 30.0179 41.8726 29.8832C43.8674 31.4883 46.8614 32.9056 51.2018 32.9056C55.8611 32.9056 59.709 31.056 61.8951 28.0904C62.2884 28.7565 62.8589 29.3128 63.5569 29.6813C63.5569 29.6813 63.7482 29.7911 64.2159 30.1809C64.6624 30.5529 64.875 30.7867 64.9458 30.8682C65.7572 31.8143 66.9371 32.3528 68.1737 32.3528C68.241 32.3528 68.3048 32.3528 68.3721 32.3493C69.0382 32.3174 69.6795 32.1332 70.2464 31.8143C70.8488 32.1402 71.5397 32.328 72.2731 32.328H75.4726C76.1919 32.328 76.8722 32.1473 77.4674 31.832C77.5985 31.8178 77.7297 31.8001 77.8607 31.7753C79.7138 31.4139 81.5173 31.0454 83.3243 30.6592C84.8904 32.1473 86.6443 32.3528 87.4911 32.3528C88.958 32.3528 90.3009 31.8745 91.3816 31.0171C91.4524 31.0171 91.5197 31.0277 91.5906 31.0277H113.434C113.7 31.0277 113.959 30.9993 114.21 30.9533C115 31.8391 116.141 32.3776 117.381 32.3776C117.484 32.3776 117.583 32.3741 117.686 32.367C121.612 32.0871 124.9 31.584 127.689 30.8399C130.36 31.6052 133.379 32.1154 136.869 32.3918C136.982 32.3989 137.092 32.406 137.206 32.406C138.191 32.406 139.126 32.0623 139.87 31.4635C140.405 31.7363 141.007 31.9064 141.645 31.9277C141.968 31.9383 142.283 31.9454 142.584 31.9454C143.941 31.9454 145.068 31.8249 146.032 31.5804C146.234 31.5308 146.432 31.4741 146.627 31.4068C147.353 31.9843 148.275 32.3316 149.274 32.3316H152.622C153.012 32.3316 153.391 32.2784 153.749 32.1792C154.248 32.3776 154.783 32.4804 155.322 32.4804C156.023 32.4804 156.732 32.3068 157.384 31.9454C157.986 31.6123 158.553 31.2509 159.088 30.8612C159.499 31.18 159.928 31.467 160.371 31.7257C161.026 32.1084 161.771 32.3068 162.515 32.3068C162.904 32.3068 163.294 32.2536 163.677 32.1438C164.789 31.8284 165.725 31.0702 166.27 30.0498C166.274 30.0427 166.377 29.8584 166.749 29.4085C167.082 29.0081 167.28 28.8203 167.369 28.7459C167.557 28.5864 167.723 28.4057 167.879 28.2179C168.056 28.6856 168.123 28.9372 168.148 29.0506C168.556 30.9993 170.256 32.4024 172.248 32.4308C172.45 32.4308 172.648 32.4343 172.839 32.4343C175.724 32.4343 177.8 32.1154 179.38 31.4281C181.407 30.5494 182.417 29.1711 182.906 28.1683C183.448 27.0593 183.71 25.7058 183.71 24.0299V23.0839H189.181C191.53 23.0839 193.432 21.1812 193.432 18.832V15.1826C193.432 13.1311 191.98 11.4197 190.049 11.0193L190.052 11.0087ZM114.363 16.4156V15.9904C114.43 16.0613 114.497 16.1321 114.565 16.2065C114.494 16.2739 114.43 16.3447 114.363 16.4156Z" fill="#231815"/>
<path d="M42.9001 25.4933L45.4087 22.067C46.7835 23.3815 48.3744 24.2673 50.1495 24.2673C52.2612 24.2673 53.636 23.3815 53.636 21.6666C53.636 19.7108 52.5979 18.5486 47.8252 18.5486V14.7255C51.7085 14.7255 52.9309 13.5315 52.9309 11.728C52.9309 10.169 52.0132 9.31152 50.3302 9.31152C48.7996 9.31152 47.6409 10.0166 46.2626 11.2071L43.5096 7.87298C45.6178 6.10139 47.8819 5.05969 50.5747 5.05969C55.2836 5.05969 58.3732 7.26001 58.3732 11.3276C58.3732 13.5917 57.1508 15.3633 54.7025 16.3412V16.4936C57.2394 17.2589 59.1067 19.0943 59.1067 22.028C59.1067 26.2798 55.2234 28.6644 50.6987 28.6644C47.0917 28.6644 44.5513 27.4101 42.9001 25.4826V25.4933Z" fill="#FCF2E5"/>
<path d="M17.9384 28.2463C16.9889 27.1479 16.0889 26.2586 15.2385 25.596C17.7861 25.185 19.951 24.5826 21.7367 23.8208H18.3884V12.674H35.9059V23.8208H32.4088C34.9953 24.7208 37.1957 25.5712 39.0062 26.3684L35.006 28.1435C33.1706 27.1054 30.8711 26.1204 28.1074 25.1708L30.2581 23.8208H23.8591L26.0842 24.82C25.085 25.4826 23.7989 26.1452 22.2115 26.7936C20.812 27.3569 19.3876 27.8424 17.9384 28.2427V28.2463ZM17.0881 11.8768V5.35376H37.2311V11.8768H17.0881ZM20.4364 9.22646H22.8103V8.00052H20.4364V9.22646ZM22.0344 15.7495H32.0793V14.8991H22.0344V15.7495ZM22.0344 18.6726H32.0793V17.8222H22.0344V18.6726ZM22.0344 21.6205H32.0793V20.7454H22.0344V21.6205ZM25.8078 9.22292H28.2066V7.99698H25.8078V9.22292ZM31.2077 9.22292H33.7056V7.99698H31.2077V9.22292Z" fill="#FCF2E5"/>
<path d="M67.6705 28.1187C67.3694 27.768 66.9584 27.3676 66.434 26.9318C65.9096 26.496 65.4454 26.1558 65.0486 25.9432C66.2356 24.2319 66.9088 21.9571 67.0965 19.1191H65.1726V15.8451H67.1709V12.6208H65.573V9.44615H67.5217C67.3233 8.11037 66.9088 6.78522 66.271 5.44589L69.0453 4.57072C69.7575 5.93131 70.2323 7.29543 70.4697 8.64539L68.1205 9.44615H74.1935L71.894 8.82255C72.4432 7.46196 72.8684 5.99863 73.1696 4.45026L76.5923 5.20141C75.7915 7.06158 75.129 8.48949 74.6187 9.44969H76.7163V12.6244H74.966V15.8487H76.9891V19.1226H74.966V28.0939H71.7665V19.1226H70.2677C70.0551 22.9847 69.1799 25.9822 67.667 28.1187H67.6705ZM70.3208 15.8487H71.77V12.6244H70.3208V15.8487ZM86.9915 28.1187C85.3404 28.1187 84.3058 25.883 83.8664 21.4221L81.7405 22.0705C81.652 20.9332 81.4039 19.6328 80.9894 18.173C80.8264 20.4229 80.6776 22.2831 80.5394 23.7465C81.3756 23.6331 82.4527 23.4595 83.7637 23.2469L83.9869 26.0708C81.9 26.5314 79.4268 27.0593 76.5391 27.6192L75.664 24.4445C75.9155 24.4055 76.3124 24.3559 76.8651 24.2956C76.9785 24.2815 77.0777 24.2567 77.1415 24.246C77.6907 19.647 78.0521 14.4881 78.2399 8.77649H76.5639V5.55219H88.2848V8.77649H81.4606L81.3862 10.952H86.7577C86.6443 20.1501 86.8215 24.7456 87.3069 24.7456C87.5053 24.7456 87.608 23.5091 87.608 21.0465C88.2068 21.9075 88.8446 22.6339 89.532 23.1973C89.4328 24.9476 89.206 26.1842 88.8588 26.8963C88.4726 27.7077 87.8454 28.1223 86.9845 28.1223L86.9915 28.1187ZM83.6928 18.9206C83.6291 17.5211 83.5936 15.8841 83.5936 14.0239H81.2445L81.1205 16.0223L82.5944 15.5971C83.0551 16.7345 83.4306 17.8329 83.6928 18.9206Z" fill="#FCF2E5"/>
<path d="M91.0874 26.7971V23.0732H112.931V26.7971H91.0874ZM92.487 10.4772V6.7533H111.631V10.4772H92.487ZM94.2869 18.4246V14.7255H109.608V18.4246H94.2869Z" fill="#FCF2E5"/>
<path d="M118.678 18.5734V12.9007C118.317 13.2515 117.952 13.5633 117.605 13.8255C116.744 12.8121 115.854 11.9512 114.954 11.2496C116.166 10.4488 117.318 9.42486 118.377 8.17412C119.44 6.92337 120.29 5.62657 120.925 4.27661L124.323 5.3502C124.209 5.60176 124.011 5.96317 123.749 6.42378C123.649 6.61157 123.575 6.73558 123.525 6.82416H126.3C126.711 5.91356 127.037 5.09863 127.249 4.40062L131.072 5.27579C130.636 5.9738 130.311 6.48756 130.098 6.82416H136.943V9.52407H129.595V10.0981H135.866V12.3232H129.595V12.9716H135.866V15.1967H129.595V15.8983H137.592V18.5734H118.671H118.678ZM136.699 28.1719C133.049 27.8849 129.889 27.3109 127.228 26.4215C124.517 27.2719 121.07 27.8459 116.882 28.1471C116.57 26.8609 116.131 25.8121 115.581 24.9724C118.391 24.859 120.74 24.6464 122.629 24.3488C121.779 23.8102 120.992 23.2362 120.28 22.5984L121.353 22.0988H116.981V19.3245H133.177L133.751 19.1757L136.001 20.4761C135.037 21.989 133.677 23.2858 131.926 24.3736C134.024 24.7243 136.288 24.9476 138.697 25.0468C137.96 25.8582 137.298 26.9069 136.699 28.1719ZM122.055 10.1016H126.08V9.52762H122.055V10.1016ZM122.055 12.9751H126.08V12.3267H122.055V12.9751ZM122.055 15.8983H126.08V15.1967H122.055V15.8983ZM127.203 23.2468C128.202 22.8961 129.063 22.5098 129.804 22.0988H124.556C125.421 22.5595 126.307 22.9492 127.207 23.2468H127.203Z" fill="#FCF2E5"/>
<path d="M154.819 28.2463C154.567 27.8955 154.22 27.4845 153.781 27.0203C153.345 26.5597 152.93 26.1841 152.544 25.8971C154.433 25.0362 155.694 23.8102 156.342 22.2477H152.742V19.2253H156.842V17.3758H155.666C155.304 18.0242 154.904 18.6017 154.464 19.1013C153.766 18.5131 152.976 17.9888 152.115 17.5281V28.101H148.767V15.2286C148.554 15.4802 148.317 15.7176 148.069 15.9302C147.817 15.4696 147.53 15.0196 147.219 14.5802C147.318 15.4802 147.367 16.6282 147.367 18.0277C147.367 22.4248 146.917 25.2381 146.018 26.4747C145.631 26.9884 145.128 27.3251 144.494 27.4739C143.732 27.6723 142.659 27.7502 141.294 27.6971C141.259 26.5491 140.968 25.4861 140.419 24.5224C141.468 24.611 142.294 24.6216 142.892 24.572C143.204 24.5224 143.456 24.3842 143.619 24.1468C143.98 23.6862 144.193 22.1095 144.242 19.4485C143.406 20.5611 142.566 21.4965 141.72 22.2477C141.259 21.0465 140.706 20.0615 140.093 19.2997C140.844 18.8001 141.592 18.1128 142.329 17.2376C143.066 16.3624 143.665 15.4625 144.115 14.5519C144.001 13.6661 143.853 12.9149 143.69 12.3019C142.953 13.1133 142.226 13.8255 141.489 14.4279C141.05 13.1417 140.526 12.0645 139.913 11.2036C140.713 10.6898 141.539 9.99178 142.386 9.13079C141.837 8.19184 141.11 7.29542 140.21 6.43088L142.535 4.73015C143.172 5.31832 143.771 5.96672 144.334 6.70371C144.745 6.09073 145.096 5.49194 145.358 4.92857L147.782 6.45214C147.282 7.44069 146.669 8.43987 145.957 9.44968C146.308 10.2115 146.62 11.161 146.882 12.2736C147.718 11.2744 148.469 10.0237 149.132 8.5249C149.72 7.18912 150.17 5.81437 150.507 4.40063L153.979 5.2262C153.43 6.98716 152.803 8.61348 152.105 10.0733V17.2943C153.04 16.1817 153.766 14.7078 154.28 12.8724H153.104V9.87486H158.603C158.617 9.68707 158.653 9.42487 158.691 9.06347C158.73 8.70206 158.766 8.43987 158.78 8.27688H154.631V5.32895H159.329L159.878 5.20494L162.277 5.40336C162.213 6.81709 162.075 8.31586 161.877 9.8784H163.776V12.8759H156.052L157.501 13.2267C157.388 13.5775 157.239 13.9637 157.076 14.3747H163.174V17.3722H160.148V19.2218H163.748V22.2441H160.573C161.487 23.7429 162.66 24.8306 164.098 25.518C163.762 25.805 163.386 26.1912 162.961 26.705C162.536 27.2188 162.21 27.6687 161.997 28.0656C160.736 27.3286 159.634 26.2054 158.699 24.6677C157.784 26.1168 156.488 27.3038 154.801 28.2427L154.819 28.2463Z" fill="#FCF2E5"/>
<path d="M171.812 28.1967C171.699 27.6581 171.486 27.0345 171.188 26.2976C170.877 25.5606 170.565 24.9476 170.264 24.448C171.327 24.4976 172.712 24.5224 174.413 24.5224C174.7 24.5224 174.887 24.4834 174.987 24.409C175.086 24.3346 175.135 24.1858 175.135 23.9732V18.8498H165.388V15.2003H175.135V11.2532H176.886C177.623 10.8032 178.498 10.1796 179.511 9.37884H168.038V5.80377H183.26L184.086 5.60535L186.86 7.70291C184.461 10.215 181.821 12.3374 178.962 14.0771V15.2003H188.685V18.8498H178.962V24.0476C178.962 25.0468 178.838 25.8086 178.587 26.3224C178.324 26.8609 177.85 27.2613 177.187 27.5483C176.124 28.0089 174.324 28.2357 171.812 28.1967Z" fill="#FCF2E5"/>
</svg>
